# xmcd
#
# Track frame offsets: 
#        150
#        8151
#        17217
#        29542
#        36327
#        45767
#        51037
#        69740
#        95822
#        104627
#        125265
#        135752
#        151901
#        165782
#        181432
#        211075
#
# Disc length: 3053 seconds
#
# Revision: 1
# Processed by: cddbd v1.5PL3 Copyright (c) Steve Scherf et al.
# Submitted via: ExactAudioCopy v0.90b4
#
DISCID=c80beb10
DTITLE=Jiri Pavlica a hosté - Sesli se... III
DYEAR=2002
DGENRE=Folklore
TTITLE0=Laudate omnes gentes - vsichni ucinkujici a divaci
TTITLE1=Muj mily clovece - Alice Holubova a Hradistan
TTITLE2=Kyrie, Rex Genitor - Nove literatske bratrstvo Chorosch z Prah
TTITLE2=y
TTITLE3=Gaude Virgo Mater - Nove literatske bratrstvo Chorosch z Prahy
TTITLE4=Pane Boze, bud pri nas - Madrigal Quintet Brno
TTITLE5=Pisen novou Panu zpivejme - Madrigal Quintet Brno
TTITLE6=Kristus z mrtvych vstal - pravoslavny sbor Oktoich z Wroclawi
TTITLE7=Blazeny muz - pravoslavny sbor Oktoich z Wroclawi
TTITLE8=Radujte se vsichni lide - pravoslavny sbor Oktoich z Wroclawi
TTITLE9=Nebot Buh mel svet tak rad - Lenka Dubcova, Karel Peschke a Sc
TTITLE9=hola studentu z Oloumouce Stripky
TTITLE10=Prave ted - Pavel Kocian a Schola studentu z Olomouce Stripky
TTITLE11=Ej, ctna Panna - Alice Holubova a Hradistan
TTITLE12=Laudate Dominum - vsichni ucinkujici a divaci
TTITLE13=Kez by svet trval - Alice Holubova, Jiri Pavlica a Hradistan
TTITLE14=Zalm 14 a 126 - Stanislav Klecandr, Roman Dostal a Oboroh
TTITLE15=Modlitba Noemova - Stanislav Klecandr a vsichni ucinkujici
EXTD=
EXTT0=
EXTT1=
EXTT2=
EXTT3=
EXTT4=
EXTT5=
EXTT6=
EXTT7=
EXTT8=
EXTT9=
EXTT10=
EXTT11=
EXTT12=
EXTT13=
EXTT14=
EXTT15=
PLAYORDER=
